# xmcd
#
# Track frame offsets: 
#        150
#        15350
#        29233
#        44798
#        57335
#        71550
#        86533
#        102843
#        118195
#        132890
#
# Disc length: 1999 seconds
#
# Revision: 2
# Processed by: cddbd v1.5.2PL0 Copyright (c) Steve Scherf et al.
# Submitted via: ExactAudioCopy v0.99pb5
#
DISCID=8c07cd0a
DTITLE=Conway Twitty - Still In Your Dreams
DYEAR=1988
DGENRE=Country
TTITLE0=I Wish I Was Still In Your Dreams
TTITLE1=Your Loving Side
TTITLE2=Goodbye Time
TTITLE3=If You Were Mine To Lose
TTITLE4=Throwing Good Love After Bad
TTITLE5=Saturday Night Special
TTITLE6=I Don't Remember Going Crazy
TTITLE7=They Only Come Out At Night
TTITLE8=Jenny's Souvenirs
TTITLE9=When You're Cool (The Sun Shines All The Time)
EXTD=
EXTT0=D Cook - J Jarvis
EXTT1=R Murrah - C Whitsett - J Schweers
EXTT2=R Murrah - JD Hicks
EXTT3=C Twitty
EXTT4=M Heeney - M Anthony
EXTT5=D Blackwell - L Bastian
EXTT6=
EXTT7=W Aldridge - J Jarrard - L Palas
EXTT8=D Henry - B Swan
EXTT9=G Nicholson - K Welch - H DeVito
PLAYORDER=
